<?xml version="1.0"?>
<svg version="1.1" xmlns="http://www.w3.org/2000/svg" width="202" height="200" style=""><path fill="#000000" d="M25,98.65l18.85,0l0-3.8l-18.85,0q-3.7,0-6.2,2.9q-2.55,2.95-2.55,7.15q0,3.8,2.55,6.6q2.5,2.85,6.2,2.85l5,0l5.1,0q2.25,0,4,1.9q1.65,2,1.65,4.35q0,2.8-1.625,4.55t-4.025,1.75l-18.85,0l0,3.1l18.85,0q3.75,0,6.25-2.6t2.5-6.8q0-3.8-2.5-6.6q-2.55-2.8-6.25-2.8l-5.1,0l-5,0q-2.3,0-3.95-2q-1.7-1.85-1.7-4.3q0-2.8,1.625-4.525t4.025-1.725z M78.692,94.95l-3.15,0l0,21.35q0,4.6-3.2,7.7q-3.15,3-7.5,3q-4.75,0-7.65-3q-2.95-3.05-2.95-7.7l0-21.35l-3.2,0l0,21.35q0,5.7,3.9,9.7q3.95,4.1,9.9,4.1q5.55,0,9.75-4.1q4.1-4,4.1-9.7l0-21.35z M107.884,98.05l-22.55,32l28.2,0l0-2.5l-22.55,0l22.55-32.6l-27.6,0l0,3.1l21.95,0z M141.726,98.05l-22.55,32l28.2,0l0-2.5l-22.55,0l22.55-32.6l-27.6,0l0,3.1l21.95,0z M154.168,130.05l3.15,0l0-35.15l-3.15,0l0,35.15z M190.71,95l-27.1,0l0,3.05l12.3,0l0,32.05l3.1,0l0-32.05l11.7,0l0-3.05z"/><path fill="#" d=""/></svg>
